<svg width="85" height="85" viewBox="0 0 85 85" fill="none" xmlns="http://www.w3.org/2000/svg">
<rect width="85" height="85" rx="20" fill="#77B6C0"/>
<path d="M36.3125 39.5938H39.4375C42.5 39.5938 44.7604 39.0833 46.2188 38.0625C47.6771 37.0417 48.4062 35.4375 48.4062 33.25C48.4062 31.0833 47.6562 29.5417 46.1562 28.625C44.6771 27.7083 42.375 27.25 39.25 27.25H36.3125V39.5938ZM36.3125 47.4688V65H26.625V19.3125H39.9375C46.1458 19.3125 50.7396 20.4479 53.7188 22.7188C56.6979 24.9688 58.1875 28.3958 58.1875 33C58.1875 35.6875 57.4479 38.0833 55.9688 40.1875C54.4896 42.2708 52.3958 43.9062 49.6875 45.0938C56.5625 55.3646 61.0417 62 63.125 65H52.375L41.4688 47.4688H36.3125Z" fill="white"/>
</svg>
