<?xml version="1.0" encoding="utf-8"?><svg xml:space="preserve" viewBox="0 0 100 100" y="0" x="0" xmlns="http://www.w3.org/2000/svg" id="Layer_1" version="1.1" width="47px" height="47px" xmlns:xlink="http://www.w3.org/1999/xlink" style="width:100%;height:100%;background-size:initial;background-repeat-y:initial;background-repeat-x:initial;background-position-y:initial;background-position-x:initial;background-origin:initial;background-color:initial;background-clip:initial;background-attachment:initial;animation-play-state:paused" ><g class="ldl-scale" style="transform-origin:50% 50%;transform:rotate(0deg) scale(0.8, 0.8);animation-play-state:paused" ><path d="M91 84.817H41.005l24.998-40.2z" stroke-width="3.5" stroke="#333" fill="#acbd81" stroke-miterlimit="10" style="stroke:rgb(51, 51, 51);fill:rgb(172, 189, 129);animation-play-state:paused" ></path>
<path d="M59.649 60.573l3.441-3.207 2.913 3.256 2.985-3.123 3.222 3.074 2.359-2.18-8.566-13.776-8.6 13.831z" stroke-miterlimit="10" stroke="#333" fill="#fff" stroke-width="3.5" style="stroke:rgb(51, 51, 51);fill:rgb(255, 255, 255);animation-play-state:paused" ></path>
<path stroke-miterlimit="10" stroke-width="3.5" stroke="#333" fill="#e0e0e0" d="M64.165 50.991H32.014A5.014 5.014 0 0 1 27 45.977v-.737a5.014 5.014 0 0 1 5.014-5.014h32.151a5.014 5.014 0 0 1 5.014 5.014v.737a5.014 5.014 0 0 1-5.014 5.014z" style="stroke:rgb(51, 51, 51);fill:rgb(224, 224, 224);animation-play-state:paused" ></path>
<path d="M69.179 84.817H9l30.09-48.389z" stroke-width="3.5" stroke="#333" fill="#acbd81" stroke-miterlimit="10" style="stroke:rgb(51, 51, 51);fill:rgb(172, 189, 129);animation-play-state:paused" ></path>
<path d="M31.712 54.731l3.995-3.724 3.383 3.781 3.466-3.626 3.741 3.569 2.65-2.45-9.857-15.853-9.899 15.918z" stroke-miterlimit="10" stroke="#333" fill="#fff" stroke-width="3.5" style="stroke:rgb(51, 51, 51);fill:rgb(255, 255, 255);animation-play-state:paused" ></path>
<path stroke-linejoin="round" stroke="#333" fill="#e0e0e0" stroke-miterlimit="10" stroke-width="3.5" d="M77.415 23.272H65.376a5.327 5.327 0 0 0 .755-2.706 5.382 5.382 0 0 0-5.382-5.382H35.81a5.382 5.382 0 1 0 0 10.764h12.039a5.327 5.327 0 0 0-.755 2.706 5.382 5.382 0 0 0 5.382 5.382h24.938a5.382 5.382 0 0 0 .001-10.764z" style="stroke:rgb(51, 51, 51);fill:rgb(224, 224, 224);animation-play-state:paused" ></path>
<metadata xmlns:d="https://loading.io/stock/" style="animation-play-state:paused" ><d:name style="animation-play-state:paused" >hiking</d:name>


<d:tags style="animation-play-state:paused" >hiking,mountain climbing,outdoor,nature,hill,camping,trek,trail</d:tags>


<d:license style="animation-play-state:paused" >by</d:license>


<d:slug style="animation-play-state:paused" >pkx43f</d:slug></metadata></g><!-- generated by https://loading.io/ --></svg>